<svg width="16" height="16" viewBox="0 0 16 16" fill="none" xmlns="http://www.w3.org/2000/svg">
<path d="M1.89057 9.22082L0.861901 11.5562H0.834099C0.28141 10.4466 -0.00420893 9.22322 4.68702e-05 7.98365V7.98365L1.77936 8.9011C1.83457 8.93078 1.87664 8.9801 1.89723 9.0393C1.91783 9.09851 1.91545 9.16329 1.89057 9.22082V9.22082ZM13.9287 4.28601C13.9426 4.55013 13.9565 4.80035 13.9565 5.05056C13.9545 6.00807 13.8283 6.96127 13.5812 7.88634L15.7914 6.21823C15.6056 5.40006 15.2913 4.61652 14.8601 3.89679L13.9009 3.93849C13.9148 4.0636 13.9287 4.17481 13.9426 4.29991L13.9287 4.28601ZM4.82365 1.95067L5.12947 0.532777C4.00429 0.968408 2.99212 1.6527 2.16858 2.5345L3.61427 2.35379C4.00919 2.19593 4.413 2.06133 4.82365 1.95067V1.95067ZM12.3718 2.35379L13.8175 2.5345C13.002 1.65614 11.9996 0.972073 10.8844 0.532777L11.1764 1.95067C11.587 2.0613 11.9908 2.1959 12.3857 2.35379H12.3718ZM9.86967 1.65875L9.27193 0.10185C8.42941 -0.0339501 7.57059 -0.0339501 6.72807 0.10185L6.13033 1.67265C7.36953 1.48255 8.63047 1.48255 9.86967 1.67265V1.65875ZM2.04348 5.05056C2.04348 4.80035 2.05738 4.55013 2.07128 4.28601C2.08518 4.0219 2.09908 4.0497 2.11298 3.93849L1.13992 3.89679C0.707366 4.62081 0.392969 5.40915 0.20856 6.23213L2.4188 7.90024C2.17048 6.97067 2.04431 6.01272 2.04348 5.05056V5.05056ZM16 7.96974L14.2206 8.9011C14.1654 8.93078 14.1234 8.9801 14.1028 9.0393C14.0822 9.09851 14.0846 9.16329 14.1094 9.22082L15.1381 11.5562H15.1659C15.7186 10.4466 16.0042 9.22322 16 7.98365V7.96974ZM3.50307 10.5553C3.35016 10.2912 3.22505 10.0271 3.09994 9.76296L1.77936 13.0158C2.5203 13.9361 3.45541 14.6813 4.51783 15.1982L6.36665 13.8081C5.20399 12.9265 4.23022 11.8203 3.50307 10.5553V10.5553ZM7.74283 14.7812L6.36665 15.8237C7.4441 16.047 8.5559 16.047 9.63335 15.8237L8.25717 14.7812C8.18498 14.727 8.09718 14.6978 8.00695 14.6978C7.91672 14.6978 7.82892 14.727 7.75673 14.7812H7.74283ZM12.483 10.5553C11.7556 11.8201 10.7818 12.9262 9.61945 13.8081L11.4544 15.2121C12.5168 14.6952 13.4519 13.95 14.1928 13.0297L12.8723 9.77686C12.775 10.041 12.6498 10.3051 12.4969 10.5553H12.483Z" fill="white"/>
<path fill-rule="evenodd" clip-rule="evenodd" d="M5.49084 2.70129C6.31528 2.50627 7.1597 2.4083 8.0069 2.40937C8.85408 2.40843 9.69849 2.5064 10.523 2.70129C11.3211 2.88963 12.0919 3.17926 12.8166 3.56314C12.8693 3.59001 12.9146 3.62942 12.9486 3.67789C12.9825 3.72637 13.004 3.78243 13.0112 3.84116C13.039 4.06358 13.0668 4.28599 13.0807 4.5223C13.0815 4.5355 13.0823 4.54865 13.083 4.56177C13.0961 4.78346 13.1085 4.99345 13.1085 5.20345C13.1095 6.94023 12.6541 8.64678 11.7879 10.1522C10.9237 11.6515 9.67638 12.8941 8.17371 13.7525C8.12088 13.783 8.06095 13.799 7.99994 13.799C7.93894 13.799 7.87901 13.783 7.82618 13.7525C6.32861 12.8921 5.08621 11.6497 4.22586 10.1522C3.35968 8.64678 2.90428 6.94023 2.90528 5.20345C2.90528 4.98103 2.91918 4.74472 2.93308 4.5223C2.94551 4.32343 2.96905 4.12456 2.99377 3.91576C2.99669 3.89104 2.99964 3.86618 3.00258 3.84116C3.00978 3.78243 3.03129 3.72637 3.06523 3.67789C3.09916 3.62942 3.14447 3.59001 3.19719 3.56314C3.92181 3.17913 4.69263 2.88948 5.49084 2.70129ZM10.8255 7.05226C10.8255 7.04201 10.8217 7.03211 10.8149 7.02446C10.593 6.78172 10.3232 6.58765 10.0225 6.45453C9.69941 6.30789 9.34867 6.23206 8.99385 6.23211H8.96605C8.4685 6.23725 7.98406 6.39227 7.57596 6.67694C7.38427 6.81686 7.21545 6.98568 7.07553 7.17737C6.99676 7.27761 6.92699 7.3846 6.86702 7.49709C6.85596 7.5134 6.85104 7.5331 6.85312 7.5527L6.90872 7.78901L6.93652 7.81681L6.97822 7.78901C7.12931 7.41397 7.39117 7.09391 7.72887 6.87155C8.09576 6.61421 8.53183 6.47369 8.97995 6.46843H9.00775C9.32856 6.46579 9.6462 6.53216 9.93911 6.66304C10.2161 6.78989 10.4626 6.97478 10.662 7.20517H10.7176L10.8149 7.08007C10.8217 7.07242 10.8255 7.06252 10.8255 7.05226ZM8.99385 5.84289C9.70058 5.83886 10.3838 6.09632 10.9122 6.56573H10.9261C10.9299 6.5745 10.9319 6.58397 10.9319 6.59354C10.9319 6.6031 10.9299 6.61257 10.9261 6.62134V6.82985C10.9266 6.83888 10.9242 6.84782 10.9191 6.85534C10.9141 6.86287 10.9068 6.86856 10.8983 6.87155H10.8566C10.61 6.62623 10.3171 6.43232 9.99494 6.30107C9.67279 6.16983 9.32779 6.10386 8.97995 6.10701H8.93825C8.48496 6.11235 8.04034 6.23187 7.64547 6.45453C7.28196 6.65737 6.97586 6.94912 6.75581 7.30248H6.70021L6.5751 7.23298V7.17737C6.57192 7.16838 6.57192 7.15857 6.5751 7.14957C6.81545 6.76181 7.15025 6.44136 7.54816 6.21821C7.97726 5.97731 8.46008 5.84824 8.95215 5.84289H8.99385ZM9.00775 5.46757C9.68855 5.46868 10.3528 5.67718 10.9122 6.0653C10.9234 6.0701 10.9332 6.07776 10.9405 6.08752C10.9478 6.09728 10.9524 6.10879 10.9539 6.12091V6.28772C10.9544 6.29674 10.952 6.30569 10.9469 6.31321C10.9419 6.32073 10.9346 6.32642 10.9261 6.32942H10.8844C10.3444 5.92064 9.68498 5.70083 9.00775 5.70388H8.96605C8.42766 5.7129 7.90082 5.86137 7.43695 6.13481C7.03454 6.36909 6.69567 6.69841 6.44999 7.09397L6.39439 7.12177H6.24148L6.19977 7.09397C6.19611 7.08763 6.19419 7.08044 6.19419 7.07312C6.19419 7.0658 6.19611 7.0586 6.19977 7.05226C6.46577 6.58626 6.84918 6.19806 7.31185 5.92629C7.81405 5.63231 8.38417 5.47421 8.96605 5.46757H9.00775ZM8.95215 5.09224H9.00775H9.02165C9.7401 5.08859 10.4445 5.29123 11.0512 5.67608V5.70388C11.053 5.71144 11.0526 5.71934 11.0502 5.72671C11.0477 5.73408 11.0432 5.74062 11.0373 5.74558L10.9261 5.84289H10.8705C10.3058 5.49837 9.65531 5.3201 8.99385 5.32856H8.95215C8.342 5.33453 7.74364 5.49728 7.21454 5.80119C6.7276 6.07722 6.32051 6.47473 6.03296 6.95496H5.96346L5.88005 6.84375C5.87216 6.83389 5.86786 6.82163 5.86786 6.809C5.86786 6.79637 5.87216 6.78411 5.88005 6.77425C6.18411 6.28552 6.60435 5.8796 7.10333 5.59267C7.66668 5.27053 8.30322 5.09823 8.95215 5.09224ZM9.02165 4.71692C9.76868 4.71428 10.5029 4.91103 11.1485 5.28685C11.1545 5.29182 11.1589 5.29836 11.1614 5.30572C11.1638 5.31309 11.1642 5.321 11.1624 5.32856L11.1207 5.48147L11.0929 5.50927H11.0512C10.4331 5.14193 9.72673 4.94972 9.00775 4.95323H8.95215C8.30083 4.96092 7.66131 5.12796 7.08943 5.43976C6.5612 5.72952 6.11243 6.14487 5.78275 6.64914H5.71324L5.61594 6.53793C5.60984 6.52737 5.60663 6.51538 5.60663 6.50318C5.60663 6.49098 5.60984 6.47899 5.61594 6.46843C5.96543 5.95378 6.43239 5.52971 6.97822 5.23125C7.58847 4.89899 8.27123 4.72233 8.96605 4.71692H9.02165ZM8.97995 4.57791H8.93825C8.27098 4.58756 7.61528 4.75356 7.0238 5.06257C6.43233 5.37159 5.92156 5.81501 5.53253 6.35722H5.49083L5.46303 6.32942L5.39352 6.19041C5.38939 6.17864 5.3885 6.16598 5.39095 6.15375C5.39339 6.14152 5.39909 6.13018 5.40742 6.12091C5.80652 5.59544 6.3199 5.16762 6.90872 4.86983C7.51359 4.56421 8.17757 4.39348 8.85484 4.3694C8.86933 4.3682 8.88383 4.37159 8.8963 4.37907C8.90877 4.38655 8.91858 4.39775 8.92435 4.4111L8.97995 4.53621C8.98361 4.54255 8.98554 4.54974 8.98554 4.55706C8.98554 4.56438 8.98361 4.57157 8.97995 4.57791ZM11.079 5.07834C10.7117 4.88413 10.3185 4.74368 9.91131 4.66131L9.88351 4.63351C9.88171 4.62596 9.88206 4.61805 9.88452 4.61068C9.88697 4.60331 9.89144 4.59678 9.89741 4.59181L10.0642 4.4806H10.1198C10.4414 4.55791 10.7537 4.66977 11.0512 4.81422C11.0608 4.81769 11.0695 4.82323 11.0767 4.83043C11.0839 4.83764 11.0894 4.84634 11.0929 4.85593L11.1346 5.03664C11.1364 5.04419 11.136 5.0521 11.1336 5.05947C11.1311 5.06684 11.1267 5.07337 11.1207 5.07834H11.079ZM7.79838 4.3555C7.45178 4.4428 7.11606 4.5687 6.79751 4.73082C6.20282 5.04405 5.68526 5.48564 5.28232 6.0236H5.22671L5.0877 5.968L5.0599 5.9402C5.05624 5.93386 5.05432 5.92666 5.05432 5.91934C5.05432 5.91202 5.05624 5.90483 5.0599 5.89849C5.4913 5.32296 6.04731 4.85249 6.68631 4.52231C7.02215 4.34856 7.37655 4.21332 7.74277 4.11918C8.07512 4.03469 8.41505 3.98347 8.75754 3.96627C8.77057 3.96379 8.78403 3.96509 8.79635 3.97002C8.80867 3.97494 8.81932 3.98329 8.82704 3.99407L8.91045 4.13308C8.91411 4.13942 8.91603 4.14661 8.91603 4.15393C8.91603 4.16125 8.91411 4.16844 8.91045 4.17478L8.86874 4.20259C8.50743 4.2142 8.14849 4.26547 7.79838 4.3555ZM8.02079 3.91067C7.40016 4.02853 6.80647 4.25941 6.26928 4.59181V4.57791C5.75164 4.89833 5.29893 5.31331 4.9348 5.80119H4.89309L4.86529 5.77338L4.83749 5.57877C4.83572 5.56905 4.83604 5.55906 4.83844 5.54947C4.84084 5.53988 4.84525 5.53092 4.85139 5.52317C5.21572 5.07761 5.65281 4.69691 6.14417 4.3972C6.66661 4.07533 7.24014 3.84498 7.84008 3.71606H7.89568L8.03469 3.84116C8.04066 3.84613 8.04513 3.85267 8.04758 3.86003C8.05004 3.8674 8.05039 3.87531 8.04859 3.88287L8.02079 3.91067ZM5.0043 5.12004H4.9626L4.9348 5.09224L4.90699 4.91153C4.90522 4.90181 4.90555 4.89182 4.90795 4.88223C4.91034 4.87264 4.91476 4.86367 4.92089 4.85593C5.58015 4.20955 6.38624 3.73257 7.27014 3.46584C7.28191 3.46171 7.29457 3.46082 7.3068 3.46326C7.31903 3.46571 7.33037 3.4714 7.33965 3.47974L7.43695 3.59095C7.44292 3.59591 7.44739 3.60245 7.44984 3.60982C7.4523 3.61719 7.45265 3.62509 7.45085 3.63265L7.42305 3.66045C6.50277 3.9265 5.66863 4.42986 5.0043 5.12004ZM5.0877 4.23039V4.20259L5.10161 4.17478C5.50866 3.84046 5.9572 3.56013 6.43609 3.34073H6.49169L6.70021 3.41024C6.70873 3.41323 6.71606 3.41892 6.72107 3.42644C6.72608 3.43397 6.72852 3.44291 6.72801 3.45194C6.72852 3.46096 6.72608 3.46991 6.72107 3.47743C6.71606 3.48495 6.70873 3.49064 6.70021 3.49364C6.18597 3.70268 5.70392 3.98349 5.26842 4.32769H5.21281L5.0877 4.23039ZM5.0321 4.03578H4.9904L4.9626 4.02187L4.9348 3.86896C4.93231 3.85593 4.93361 3.84247 4.93854 3.83015C4.94347 3.81783 4.95181 3.80718 4.9626 3.79946L5.43523 3.46584H5.49083L5.67154 3.52144L5.69934 3.54924C5.70114 3.5568 5.70079 3.56471 5.69833 3.57208C5.69588 3.57944 5.69141 3.58598 5.68544 3.59095C5.4585 3.7253 5.24029 3.87387 5.0321 4.03578ZM8.99385 8.13653C9.06444 8.13852 9.13258 8.16286 9.18846 8.20604L9.59159 8.52576C9.59756 8.53072 9.60202 8.53726 9.60448 8.54463C9.60694 8.552 9.60729 8.5599 9.60549 8.56746L9.54989 8.72037L9.52208 8.74817H9.48038L9.03555 8.35895H8.97995C8.96004 8.35867 8.94069 8.36552 8.92539 8.37827C8.91009 8.39102 8.89986 8.40882 8.89655 8.42845L8.92435 8.48406C8.92435 8.48406 9.24407 8.77597 9.43868 8.94278C9.44465 8.94775 9.44911 8.95429 9.45157 8.96165C9.45403 8.96902 9.45438 8.97693 9.45258 8.98449V9.01229L9.31357 9.09569H9.25797L8.77144 8.65087C8.7153 8.5951 8.68081 8.5212 8.67413 8.44235C8.67409 8.40099 8.68243 8.36006 8.69866 8.32202C8.7149 8.28398 8.73867 8.24963 8.76856 8.22104C8.79845 8.19245 8.83382 8.17022 8.87255 8.1557C8.91127 8.14117 8.95254 8.13465 8.99385 8.13653ZM8.99385 7.74731C9.17846 7.75078 9.35583 7.81975 9.49428 7.94192L9.89741 8.31724C9.90545 8.32437 9.91043 8.33433 9.91131 8.34505V8.37285L9.7862 8.47015H9.7306L9.34137 8.12263C9.24638 8.03543 9.12278 7.98599 8.99385 7.98362H8.96605C8.83686 7.98467 8.7128 8.03429 8.61853 8.12263C8.57436 8.1633 8.53918 8.21275 8.51525 8.26781C8.49131 8.32287 8.47914 8.38232 8.47952 8.44235C8.48148 8.5388 8.51574 8.6318 8.57682 8.70647C8.78518 8.95142 9.03446 9.15837 9.31357 9.31811V9.34591L9.36917 9.55442C9.37097 9.56198 9.37062 9.56989 9.36816 9.57725C9.36571 9.58462 9.36124 9.59116 9.35527 9.59612H9.31357C8.96152 9.40844 8.64979 9.15339 8.39611 8.84548C8.301 8.73228 8.24709 8.59016 8.2432 8.44235C8.24293 8.35132 8.26129 8.2612 8.29715 8.17753C8.33301 8.09385 8.38561 8.01841 8.45172 7.95582C8.59023 7.82316 8.77426 7.74855 8.96605 7.74731H8.99385ZM9.53599 7.49709C9.61669 7.53779 9.69151 7.58922 9.7584 7.65L10.092 7.92802C10.0982 7.93577 10.1026 7.94473 10.105 7.95432C10.1074 7.96391 10.1077 7.9739 10.1059 7.98362V8.19214C10.1039 8.1987 10.1004 8.20467 10.0955 8.20952C10.0907 8.21437 10.0847 8.21795 10.0781 8.21994H10.0364L9.61939 7.83071L9.45258 7.70561C9.3183 7.64056 9.17086 7.60727 9.02165 7.6083H9.00775C8.77078 7.6086 8.54256 7.69791 8.36831 7.85852C8.28431 7.93364 8.21731 8.02581 8.17176 8.12889C8.12622 8.23196 8.10318 8.34357 8.10419 8.45625C8.10617 8.62788 8.16482 8.79404 8.27101 8.92888C8.4963 9.2143 8.76903 9.45881 9.07726 9.65173C9.08323 9.6567 9.08769 9.66323 9.09015 9.6706C9.0926 9.67797 9.09295 9.68587 9.09116 9.69343L9.06336 9.72123L8.89655 9.79074H8.85484C8.55886 9.59235 8.29613 9.34839 8.07639 9.06789C7.93711 8.89396 7.85895 8.67902 7.85398 8.45625C7.85134 8.31361 7.8784 8.17198 7.93344 8.04036C7.98848 7.90874 8.0703 7.79 8.1737 7.6917C8.3922 7.48678 8.68039 7.3725 8.97995 7.37199H8.99385C9.18183 7.37099 9.36745 7.41382 9.53599 7.49709ZM8.96605 6.99666H8.99385C9.41662 7.0005 9.82097 7.17023 10.1198 7.46929C10.127 7.47642 10.132 7.48537 10.1345 7.49516C10.1369 7.50496 10.1367 7.51524 10.1337 7.52489L10.0503 7.65H9.98081C9.85303 7.51739 9.69969 7.41206 9.53005 7.34038C9.36042 7.26871 9.17801 7.23217 8.99385 7.23298H8.96605C8.62583 7.23466 8.29855 7.36359 8.04859 7.5944C7.92904 7.70367 7.83384 7.83688 7.76918 7.98537C7.70451 8.13386 7.67183 8.2943 7.67327 8.45625C7.67627 8.70289 7.75919 8.9419 7.90958 9.1374C8.12721 9.4149 8.38487 9.65851 8.67413 9.86024C8.6801 9.86521 8.68457 9.87174 8.68702 9.87911C8.68948 9.88648 8.68983 9.89439 8.68803 9.90194L8.64633 10.0549L8.61853 10.0827H8.57682C8.25391 9.85971 7.96781 9.58768 7.72887 9.2764C7.54538 9.04181 7.44295 8.75402 7.43695 8.45625C7.43565 8.26331 7.47452 8.07221 7.55111 7.89511C7.62769 7.71801 7.7403 7.55879 7.88178 7.42759C8.176 7.15247 8.56324 6.99857 8.96605 6.99666ZM8.96605 6.62134H8.99385V6.60744C9.51403 6.60153 10.0166 6.7956 10.3978 7.14957C10.4038 7.15454 10.4083 7.16107 10.4107 7.16844C10.4132 7.17581 10.4135 7.18372 10.4117 7.19127V7.21908L10.2727 7.30248H10.2171C9.88293 6.99732 9.44641 6.82866 8.99385 6.82985C8.54369 6.8332 8.11154 7.00706 7.78448 7.31638C7.62937 7.45978 7.50597 7.63403 7.42218 7.82793C7.33839 8.02184 7.29607 8.23113 7.29794 8.44235C7.30293 8.77038 7.41523 9.08775 7.61766 9.34591C7.93802 9.76879 8.33976 10.1233 8.79924 10.3885V10.4163C8.80103 10.4238 8.80068 10.4317 8.79823 10.4391C8.79577 10.4465 8.79131 10.453 8.78534 10.458L8.67413 10.5692H8.61853C8.14743 10.3037 7.73206 9.94969 7.39525 9.52662C7.16379 9.22809 7.03681 8.86179 7.03383 8.48406C7.03014 8.2395 7.07771 7.99689 7.17348 7.77183C7.26924 7.54678 7.41108 7.34428 7.58986 7.17737C7.96117 6.82373 8.45329 6.62489 8.96605 6.62134ZM8.52122 10.9445H8.46562C7.96205 10.6622 7.51446 10.29 7.14503 9.84634C7.1389 9.83859 7.13448 9.82963 7.13209 9.82004C7.12969 9.81045 7.12936 9.80046 7.13113 9.79074L7.17284 9.61003L7.20064 9.58222H7.24234C7.6029 10.0621 8.05684 10.464 8.57682 10.7638C8.58581 10.7695 8.59226 10.7785 8.59484 10.7888C8.59743 10.7992 8.59595 10.8101 8.59073 10.8194L8.52122 10.9445ZM8.72973 11.5005H8.71583L8.68803 11.5144C8.18808 11.2829 7.72821 10.9732 7.32575 10.597C7.31711 10.5905 7.31011 10.5821 7.30528 10.5725C7.30046 10.5628 7.29794 10.5522 7.29794 10.5414V10.3329C7.29743 10.3238 7.29987 10.3149 7.30488 10.3074C7.3099 10.2999 7.31722 10.2942 7.32575 10.2912H7.36745C7.75537 10.6834 8.20648 11.0077 8.70193 11.2503C8.71046 11.2533 8.71778 11.259 8.7228 11.2665C8.72781 11.2741 8.73025 11.283 8.72973 11.292V11.5005ZM7.67327 11.1391L7.70107 11.1113L7.74277 11.1252C7.99262 11.3096 8.25769 11.4723 8.53512 11.6118C8.54365 11.6148 8.55097 11.6204 8.55599 11.628C8.561 11.6355 8.56344 11.6444 8.56292 11.6535V11.8481H8.52122C8.22525 11.7103 7.94157 11.5475 7.67327 11.3615C7.66248 11.3538 7.65414 11.3432 7.64921 11.3308C7.64428 11.3185 7.64299 11.3051 7.64547 11.292L7.67327 11.1391ZM8.96605 12.4319H8.93825L8.91045 12.4736C8.47714 12.3209 8.06218 12.1204 7.67327 11.8759C7.66464 11.8694 7.65763 11.861 7.6528 11.8513C7.64798 11.8417 7.64547 11.8311 7.64547 11.8203V11.6396C7.64367 11.632 7.64402 11.6241 7.64648 11.6167C7.64893 11.6094 7.6534 11.6028 7.65937 11.5979H7.70107C8.05007 11.8312 8.42284 12.027 8.81314 12.1817H8.84094L8.96605 12.3902C8.96971 12.3965 8.97164 12.4037 8.97164 12.4111C8.97164 12.4184 8.96971 12.4256 8.96605 12.4319ZM7.95129 12.1817H7.99299L7.97909 12.1956C8.3613 12.3879 8.76178 12.5416 9.17456 12.6543C9.1803 12.6581 9.185 12.6633 9.18826 12.6693C9.19151 12.6754 9.19321 12.6822 9.19321 12.6891C9.19321 12.696 9.19151 12.7027 9.18826 12.7088C9.185 12.7149 9.1803 12.72 9.17456 12.7238L8.97995 12.8211H8.92435C8.62425 12.7215 8.3316 12.6007 8.04859 12.4597L8.00689 12.418L7.93738 12.2234C7.93559 12.2158 7.93594 12.2079 7.93839 12.2006C7.94085 12.1932 7.94531 12.1867 7.95129 12.1817Z" fill="white"/>
<path d="M10.1894 9.3042V9.84633H10.0643V9.44321L9.96697 9.48491C9.93989 9.45421 9.92505 9.41463 9.92526 9.3737L10.0921 9.3042H10.1894Z" fill="white"/>
<path d="M10.676 9.55446C10.676 9.77687 10.5509 9.86028 10.3424 9.86028C10.3318 9.8387 10.327 9.81476 10.3285 9.79078C10.3268 9.77692 10.3268 9.76293 10.3285 9.74907C10.4536 9.74907 10.537 9.73517 10.5509 9.62396C10.5252 9.65016 10.4902 9.66515 10.4536 9.66567C10.4293 9.66779 10.4049 9.66457 10.382 9.65624C10.3591 9.64791 10.3383 9.63467 10.3211 9.61744C10.3039 9.60022 10.2906 9.57943 10.2823 9.55655C10.2739 9.53366 10.2707 9.50922 10.2729 9.48496C10.2729 9.43334 10.2934 9.38384 10.3299 9.34734C10.3663 9.31085 10.4158 9.29034 10.4675 9.29034C10.6065 9.29034 10.676 9.40155 10.676 9.55446ZM10.4675 9.55446L10.5648 9.52666C10.5648 9.44325 10.5231 9.38765 10.4675 9.38765C10.456 9.38499 10.444 9.38529 10.4326 9.38854C10.4213 9.39179 10.411 9.39787 10.4026 9.40621C10.3943 9.41456 10.3882 9.42489 10.3849 9.43623C10.3817 9.44758 10.3814 9.45956 10.3841 9.47105C10.3779 9.48329 10.3755 9.49707 10.3772 9.51065C10.3789 9.52424 10.3845 9.53703 10.3934 9.54742C10.4023 9.55781 10.4141 9.56535 10.4273 9.56907C10.4405 9.5728 10.4544 9.57255 10.4675 9.56836V9.55446Z" fill="white"/>
<path d="M10.9818 9.3042V9.84633H10.8567V9.44321L10.7594 9.48491C10.7323 9.45421 10.7175 9.41463 10.7177 9.3737L10.8845 9.3042H10.9818Z" fill="white"/>
<path d="M11.4822 9.66565C11.4847 9.69305 11.4809 9.72065 11.471 9.74635C11.4612 9.77204 11.4457 9.79516 11.4255 9.81393C11.4054 9.8327 11.3813 9.84663 11.355 9.85466C11.3287 9.86269 11.3009 9.86461 11.2737 9.86027C11.2445 9.86267 11.2151 9.85845 11.1878 9.84792C11.1604 9.83738 11.1358 9.8208 11.1157 9.79941C11.0957 9.77803 11.0807 9.75239 11.072 9.72442C11.0632 9.69644 11.0609 9.66685 11.0652 9.63785C11.0646 9.5488 11.0969 9.46267 11.1559 9.39597C11.2149 9.32927 11.2965 9.2867 11.3849 9.27643C11.406 9.3095 11.4158 9.34853 11.4127 9.38764C11.3664 9.38796 11.3211 9.40112 11.2818 9.42566C11.2426 9.45021 11.2109 9.48516 11.1903 9.52664L11.2876 9.49884C11.312 9.49168 11.3379 9.49073 11.3628 9.49608C11.3877 9.50143 11.4108 9.51291 11.4302 9.52948C11.4495 9.54605 11.4644 9.56718 11.4735 9.59096C11.4826 9.61474 11.4856 9.64041 11.4822 9.66565V9.66565ZM11.371 9.66565C11.3712 9.65523 11.3691 9.64489 11.3648 9.6354C11.3604 9.62592 11.354 9.61753 11.346 9.61085C11.338 9.60418 11.3286 9.59939 11.3185 9.59684C11.3084 9.5943 11.2978 9.59406 11.2876 9.59615L11.1903 9.62395C11.1903 9.69345 11.232 9.73516 11.2737 9.73516C11.2837 9.73959 11.2946 9.74162 11.3055 9.74107C11.3164 9.74052 11.327 9.73742 11.3365 9.732C11.3459 9.72659 11.354 9.71902 11.36 9.70991C11.366 9.70079 11.3698 9.6904 11.371 9.67955V9.66565Z" fill="white"/>
</svg>
