<?xml version="1.0" encoding="UTF-8" standalone="no"?>
<!-- Generator: Adobe Illustrator 16.0.0, SVG Export Plug-In . SVG Version: 6.00 Build 0)  -->

<svg
   xmlns:dc="http://purl.org/dc/elements/1.1/"
   xmlns:cc="http://creativecommons.org/ns#"
   xmlns:rdf="http://www.w3.org/1999/02/22-rdf-syntax-ns#"
   xmlns:svg="http://www.w3.org/2000/svg"
   xmlns="http://www.w3.org/2000/svg"
   xmlns:sodipodi="http://sodipodi.sourceforge.net/DTD/sodipodi-0.dtd"
   xmlns:inkscape="http://www.inkscape.org/namespaces/inkscape"
   version="1.1"
   id="Capa_1"
   x="0px"
   y="0px"
   width="494.944"
   height="175.733"
   viewBox="0 0 494.944 175.733"
   enable-background="new 0 0 566.929 566.929"
   xml:space="preserve"
   sodipodi:docname="logo-sin.svg"
   inkscape:version="0.92.3 (2405546, 2018-03-11)"><metadata
   id="metadata117"><rdf:RDF><cc:Work
       rdf:about=""><dc:format>image/svg+xml</dc:format><dc:type
         rdf:resource="http://purl.org/dc/dcmitype/StillImage" /><dc:title></dc:title></cc:Work></rdf:RDF></metadata><defs
   id="defs115">
	<linearGradient
   y2="317.2832"
   x2="532.40143"
   y1="317.2832"
   x1="453.76761"
   gradientUnits="userSpaceOnUse"
   id="SVGID_1_"
   gradientTransform="translate(-37.457885,-175.60329)">
		<stop
   id="stop26"
   style="stop-color:#ACBD6C"
   offset="0.0112" />
		<stop
   id="stop28"
   style="stop-color:#91AA31"
   offset="0.5" />
		<stop
   id="stop30"
   style="stop-color:#6E8429"
   offset="1" />
	</linearGradient>
	
	<linearGradient
   y2="248.8047"
   x2="348.6572"
   y1="248.8047"
   x1="37.4575"
   gradientUnits="userSpaceOnUse"
   id="SVGID_2_"
   gradientTransform="translate(-37.457885,-175.60329)">
		<stop
   id="stop35"
   style="stop-color:#ACBD6C"
   offset="0.0112" />
		<stop
   id="stop37"
   style="stop-color:#91AA31"
   offset="0.5" />
		<stop
   id="stop39"
   style="stop-color:#6E8429"
   offset="1" />
	</linearGradient>
	
	<linearGradient
   y2="309.86331"
   x2="402.49509"
   y1="309.86331"
   x1="350.09381"
   gradientUnits="userSpaceOnUse"
   id="SVGID_3_"
   gradientTransform="translate(-37.457885,-175.60329)">
		<stop
   id="stop44"
   style="stop-color:#A6ACBD"
   offset="0" />
		<stop
   id="stop46"
   style="stop-color:#FFFFFF"
   offset="0.882" />
	</linearGradient>
	
	<linearGradient
   y2="307.98441"
   x2="454.0947"
   y1="307.98441"
   x1="410.13379"
   gradientUnits="userSpaceOnUse"
   id="SVGID_4_"
   gradientTransform="translate(-37.457885,-175.60329)">
		<stop
   id="stop51"
   style="stop-color:#A6ACBD"
   offset="0" />
		<stop
   id="stop53"
   style="stop-color:#FFFFFF"
   offset="0.882" />
	</linearGradient>
	
	<linearGradient
   y2="307.36911"
   x2="494.43069"
   y1="307.36911"
   x1="467.44531"
   gradientUnits="userSpaceOnUse"
   id="SVGID_5_"
   gradientTransform="translate(-37.457885,-175.60329)">
		<stop
   id="stop58"
   style="stop-color:#A6ACBD"
   offset="0" />
		<stop
   id="stop60"
   style="stop-color:#FFFFFF"
   offset="0.882" />
	</linearGradient>
	
	<linearGradient
   y2="306.14841"
   x2="138.4854"
   y1="306.14841"
   x1="92.055199"
   gradientUnits="userSpaceOnUse"
   id="SVGID_6_"
   gradientTransform="translate(-97.235885,-179.27429)">
		<stop
   id="stop65"
   style="stop-color:#ACBD6C"
   offset="0.0112" />
		<stop
   id="stop67"
   style="stop-color:#91AA31"
   offset="0.5" />
		<stop
   id="stop69"
   style="stop-color:#6E8429"
   offset="1" />
	</linearGradient>
	
	<linearGradient
   y2="304.74219"
   x2="292.81741"
   y1="304.74219"
   x1="240.3374"
   gradientUnits="userSpaceOnUse"
   id="SVGID_7_"
   gradientTransform="translate(-37.457885,-175.60329)">
		<stop
   id="stop74"
   style="stop-color:#ACBD6C"
   offset="0.0112" />
		<stop
   id="stop76"
   style="stop-color:#91AA31"
   offset="0.5" />
		<stop
   id="stop78"
   style="stop-color:#6E8429"
   offset="1" />
	</linearGradient>
	
	<linearGradient
   y2="310.17871"
   x2="341.97559"
   y1="310.17871"
   x1="297.50101"
   gradientUnits="userSpaceOnUse"
   id="SVGID_8_"
   gradientTransform="translate(-37.457885,-175.60329)">
		<stop
   id="stop83"
   style="stop-color:#ACBD6C"
   offset="0.0112" />
		<stop
   id="stop85"
   style="stop-color:#91AA31"
   offset="0.5" />
		<stop
   id="stop87"
   style="stop-color:#6E8429"
   offset="1" />
	</linearGradient>
	
	<linearGradient
   y2="304.7197"
   x2="234.7959"
   y1="304.7197"
   x1="190.26421"
   gradientUnits="userSpaceOnUse"
   id="SVGID_9_"
   gradientTransform="translate(-37.457885,-175.60329)">
		<stop
   id="stop92"
   style="stop-color:#ACBD6C"
   offset="0.0112" />
		<stop
   id="stop94"
   style="stop-color:#91AA31"
   offset="0.5" />
		<stop
   id="stop96"
   style="stop-color:#6E8429"
   offset="1" />
	</linearGradient>
	
	<linearGradient
   y2="305.35159"
   x2="167.7261"
   y1="305.35159"
   x1="144.6084"
   gradientUnits="userSpaceOnUse"
   id="SVGID_10_"
   gradientTransform="translate(-37.457885,-175.60329)">
		<stop
   id="stop101"
   style="stop-color:#ACBD6C"
   offset="0.0112" />
		<stop
   id="stop103"
   style="stop-color:#91AA31"
   offset="0.5" />
		<stop
   id="stop105"
   style="stop-color:#6E8429"
   offset="1" />
	</linearGradient>
	
</defs><sodipodi:namedview
   pagecolor="#ffffff"
   bordercolor="#666666"
   borderopacity="1"
   objecttolerance="10"
   gridtolerance="10"
   guidetolerance="10"
   inkscape:pageopacity="0"
   inkscape:pageshadow="2"
   inkscape:window-width="1366"
   inkscape:window-height="707"
   id="namedview113"
   showgrid="false"
   inkscape:zoom="0.83255573"
   inkscape:cx="352.3162"
   inkscape:cy="138.99684"
   inkscape:window-x="0"
   inkscape:window-y="0"
   inkscape:window-maximized="1"
   inkscape:current-layer="Capa_1" />

<g
   id="g20"
   transform="translate(-37.457885,-175.60329)">
	<path
   d="m 373.509,277.472 c 0.628,-2.633 2.27,-6.088 3.216,-8.776 1.039,-2.955 2.107,-5.844 2.808,-9.054 1.042,-4.768 0.386,-6.07 -3.273,-7.765 -2.127,-0.985 -6.771,-2.418 -9.361,-2.186 -3.371,23.405 -25.455,51.852 -13.071,66.196 9.154,10.604 47.934,2.639 51.681,-26.772 2.782,-21.833 -16.262,-21.811 -27.49,-14.538 -1.259,0.816 -3.194,2.326 -4.51,2.895 z m 10.594,0.351 c 5.428,-1.691 7.475,2.687 7.149,7.568 -0.291,4.36 -1.795,8.419 -3.361,12.021 -2.585,5.94 -8.747,14.21 -15.189,15.569 -15.009,3.167 -4.679,-30.155 11.401,-35.158 z"
   id="path4"
   inkscape:connector-curvature="0"
   style="clip-rule:evenodd;fill:#ffffff;fill-rule:evenodd" />
	<path
   d="m 136.085,305.766 c -2.671,1.035 -6.524,5.471 -16.364,5.411 -7.369,-0.044 -10.967,-3.37 -12.417,-9.558 9.787,0.083 15.919,-0.788 23.699,-4.624 15.063,-7.428 15.229,-19.877 7.014,-24.46 -3.586,-2.001 -7.313,-2.366 -12.098,-2.172 -28.038,1.144 -42.601,35.19 -28.283,46.061 5.533,4.2 15.646,5.028 23.37,2.688 6.581,-1.995 13.23,-7.443 15.079,-13.346 z m -28.103,-9.921 c 1.318,-5.941 6.914,-15.433 13.277,-17.786 6.936,-2.563 11.63,2.978 8.606,8.886 -3.217,6.282 -15.211,8.371 -21.883,8.9 z"
   id="path6"
   inkscape:connector-curvature="0"
   style="clip-rule:evenodd;fill:#a1bc32;fill-rule:evenodd" />
	<path
   d="m 454.095,305.777 c -5.056,2.66 -7.915,5.525 -16.361,5.439 -7.313,-0.077 -10.937,-3.386 -12.374,-9.592 5.125,-0.099 7.96,0.131 13.031,-0.978 24.418,-5.334 28,-22.31 17.639,-28.112 -3.664,-2.051 -7.289,-2.38 -12.031,-2.143 -9.011,0.451 -15.162,3.851 -20.635,7.957 -4.261,3.197 -9.342,9.641 -11.689,16.659 -2.998,8.969 -1.643,16.906 4.036,21.359 5.491,4.309 15.64,5.049 23.293,2.731 5.689,-1.725 13.778,-7.458 15.091,-13.32 z m -28.151,-9.902 c 2.021,-6.683 6.788,-15.388 13.323,-17.814 2.68,-0.996 6.176,-0.739 7.948,0.863 1.84,1.664 2.014,5.499 0.7,8.052 -3.192,6.204 -15.551,8.639 -21.971,8.899 z"
   id="path8"
   inkscape:connector-curvature="0"
   style="clip-rule:evenodd;fill:#ffffff;fill-rule:evenodd" />
	<path
   d="m 251.224,271.428 c 0.415,5.528 0.521,7.213 -1.153,12.339 -3.345,10.237 -13.026,23.633 -8.592,31.896 1.493,2.784 4.712,4.717 9.177,4.836 8.844,0.23 15.304,-9.229 19.793,-15.539 l 2.996,-4.095 c 0.032,-0.035 0.096,-0.105 0.147,-0.154 -0.798,4.467 -3.733,11.953 -1.774,16.191 2.264,4.895 9.473,4.04 14.569,2.377 0.395,-2.282 -1.466,-4.864 2.399,-15.418 1.703,-4.646 3.537,-8.775 5.384,-13.245 1.418,-3.434 4.477,-10.535 4.084,-14.65 -0.414,-4.338 -10.368,-5.72 -13.048,-5.58 -0.397,0.832 -1.294,5.07 -1.66,6.365 -2.45,8.684 -8.518,20.611 -14.678,26.631 -2.187,2.137 -7.704,6.503 -11.246,4.523 -3.338,-1.868 1.101,-9.376 2.247,-11.644 1.848,-3.657 3.687,-7.173 5.172,-11.286 4.784,-13.241 -1.299,-17.03 -13.817,-13.547 z"
   id="path10"
   inkscape:connector-curvature="0"
   style="clip-rule:evenodd;fill:#a1bc32;fill-rule:evenodd" />
	<path
   d="m 310.268,303.569 c -5.538,-0.394 -11.996,1.315 -12.729,7.505 -1.293,10.91 30.979,15.068 42.068,-0.123 5.964,-8.171 -0.392,-15.154 -7.274,-18.645 -3.894,-1.975 -11.259,-4.328 -10.493,-10.119 0.849,-6.423 9.512,-7.097 13.119,-4.395 2.482,1.861 2.556,3.764 2.714,7.547 11.021,0.432 16.311,-14.938 -3.062,-15.004 -28.859,-0.098 -31.729,18.579 -23.368,25.23 5.165,4.108 8.146,3.638 11.754,7.424 6.614,6.936 -5.774,15.144 -11.084,8.653 -1.876,-2.29 -1.617,-4.611 -1.645,-8.073 z"
   id="path12"
   inkscape:connector-curvature="0"
   style="clip-rule:evenodd;fill:#a1bc32;fill-rule:evenodd" />
	<path
   d="m 203.112,303.559 c -14.8,-0.838 -18.826,13.463 -1.263,16.622 25.906,4.659 45.485,-16.632 23.292,-27.864 -3.876,-1.961 -11.227,-4.381 -10.454,-10.121 0.364,-2.707 2.451,-4.729 4.84,-5.49 2.632,-0.84 6.405,-0.31 8.275,1.071 2.496,1.842 2.577,3.769 2.711,7.55 10.755,0.688 16.556,-14.94 -3.077,-14.992 -28.759,-0.075 -31.723,18.501 -23.342,25.208 5.137,4.109 8.213,3.721 11.752,7.423 6.492,6.789 -5.613,15.335 -11.084,8.651 -1.797,-2.193 -1.642,-4.695 -1.65,-8.058 z"
   id="path14"
   inkscape:connector-curvature="0"
   style="clip-rule:evenodd;fill:#a1bc32;fill-rule:evenodd" />
	<path
   d="m 481.619,272.597 c -4.54,0.002 -11.581,-0.638 -11.711,7.139 l 9.391,-0.297 c -2.92,8.685 -12.374,23.932 -11.831,33.254 0.874,15.056 23.501,11.378 26.963,2.465 -12.078,2.808 -11.94,-5.905 -8.967,-14.924 2.228,-6.755 7.037,-15.492 8.388,-19.92 6.444,0 13.076,0.606 12.232,-7.33 -2.767,0.303 -6.944,0.979 -9.673,0.535 0.599,-2.742 3.23,-11.616 1.287,-13.764 -1.957,-2.162 -8.854,-3.665 -12.6,-3.885 -0.165,3.437 -1.918,14.457 -3.479,16.727 z"
   id="path16"
   inkscape:connector-curvature="0"
   style="clip-rule:evenodd;fill:#ffffff;fill-rule:evenodd" />
	<path
   d="m 160.187,319.189 c -0.563,-9.901 6.257,-33.712 14.586,-36.473 7.218,-2.393 8.357,7.208 8.659,7.774 5.233,-1.271 15.611,-10.602 9.488,-17.511 -3.517,-3.969 -11.74,-3.734 -16.704,1.189 -1.26,1.249 -2.241,3.01 -3.583,4.267 -1.292,-2.189 0.804,-5.885 -11.329,-7.862 -3.379,-0.55 -2.322,-0.2 -2.987,2.973 -2.559,12.196 -12.37,28.042 -13.603,38.178 -1.213,9.972 8.208,9.786 15.473,7.465 z"
   id="path18"
   inkscape:connector-curvature="0"
   style="clip-rule:evenodd;fill:#a1bc32;fill-rule:evenodd" />
</g>
<path
   d="m 416.31012,162.69772 c 0,0 27.528,8.388 47.175,-6.49 19.646,-14.88 26.61,-32.407 31.412,-48.60101 0,0 2.34,46.66001 -25.937,62.56301 -28.273,15.903 -52.65,-7.472 -52.65,-7.472 z"
   id="path22"
   inkscape:connector-curvature="0"
   style="clip-rule:evenodd;fill:#a3bd31;fill-rule:evenodd" />
<path
   d="m 24.473115,113.77571 c 0,0 -5.607,-4.998 -6.443,-21.896 0.595,-10.315 2.539,-20.762 5.561,-31.156 0.237,-0.708 -19.3739997,-1.971 -20.8049997,5.351 -6.673,26.678 -0.055,58.40701 6.204,69.13501 3.8389997,6.551 13.0949997,12.522 21.0739997,10.873 2.374,-0.46 4.656,-2.146 6.654,-5.396 2.992,-4.763 6.47,-14.731 10.264,-25.45401 14.542,-28.92 77.540005,-125.262001 264.217005,-104.795 0,-10e-4 -198.67,-58.948 -286.726005,103.338 z"
   id="path24"
   inkscape:connector-curvature="0"
   style="clip-rule:evenodd;fill:#a3bd31;fill-rule:evenodd" />

</svg>