<?xml version="1.0" encoding="UTF-8"?>
<!DOCTYPE svg PUBLIC "-//W3C//DTD SVG 1.1//EN" "http://www.w3.org/Graphics/SVG/1.1/DTD/svg11.dtd">
<!-- Creator: CorelDRAW 2020 (64-Bit) -->
<svg xmlns="http://www.w3.org/2000/svg" xml:space="preserve" width="2.7093mm" height="2.7092mm" version="1.1" style="shape-rendering:geometricPrecision; text-rendering:geometricPrecision; image-rendering:optimizeQuality; fill-rule:evenodd; clip-rule:evenodd"
viewBox="0 0 7.78 7.78"
 xmlns:xlink="http://www.w3.org/1999/xlink"
 xmlns:xodm="http://www.corel.com/coreldraw/odm/2003">
 <defs>
  <style type="text/css">
   <![CDATA[
    .fil0 {fill:#141414}
    .fil1 {fill:#A3BD31;fill-rule:nonzero}
   ]]>
  </style>
 </defs>
 <g id="Capa_x0020_1">
  <metadata id="CorelCorpID_0Corel-Layer"/>
  <rect class="fil0" x="-0" y="-0" width="7.78" height="7.78" rx="0.78" ry="0.74"/>
  <path class="fil1" d="M3.99 2.43c0.2,0.12 0.3,0.25 0.3,0.38 0,0.08 -0.04,0.18 -0.12,0.32l-1.2 2.05c-0.04,0.07 -0.1,0.12 -0.19,0.18 -0.08,0.05 -0.17,0.08 -0.25,0.08 -0.08,0 -0.16,-0.02 -0.24,-0.06 -0.08,-0.04 -0.13,-0.08 -0.16,-0.12l-0.05 -0.06 -1.2 -2.06c-0.08,-0.13 -0.12,-0.23 -0.12,-0.31 0,-0.14 0.1,-0.27 0.3,-0.39 0.15,-0.08 0.26,-0.13 0.35,-0.13 0.08,0 0.15,0.03 0.2,0.08 0.05,0.05 0.1,0.13 0.15,0.23l0.76 1.46 0.76 -1.46c0.04,-0.07 0.07,-0.13 0.1,-0.16 0.02,-0.03 0.06,-0.07 0.1,-0.1 0.05,-0.03 0.11,-0.05 0.19,-0.05 0.08,0 0.18,0.04 0.32,0.12zm0.58 2.71c-0.07,-0.05 -0.11,-0.12 -0.11,-0.22 0,-0.1 0.07,-0.25 0.22,-0.46 0.04,-0.07 0.11,-0.1 0.21,-0.1 0.09,0 0.22,0.05 0.38,0.14 0.16,0.09 0.31,0.14 0.44,0.14 0.24,0 0.35,-0.05 0.35,-0.14 0,-0.07 -0.13,-0.13 -0.39,-0.16 -0.24,-0.03 -0.48,-0.13 -0.72,-0.27 -0.11,-0.07 -0.2,-0.18 -0.28,-0.33 -0.07,-0.15 -0.11,-0.32 -0.11,-0.53 0,-0.61 0.42,-0.91 1.26,-0.91 0.27,0 0.56,0.07 0.84,0.2 0.13,0.06 0.2,0.14 0.2,0.23 0,0.09 -0.04,0.21 -0.13,0.34 -0.08,0.14 -0.17,0.2 -0.26,0.2 -0.05,0 -0.13,-0.03 -0.26,-0.09 -0.13,-0.06 -0.26,-0.09 -0.41,-0.09 -0.23,0 -0.34,0.04 -0.34,0.13 0,0.12 0.13,0.19 0.39,0.23 0.25,0.03 0.5,0.1 0.74,0.22 0.11,0.05 0.21,0.15 0.28,0.28 0.08,0.13 0.11,0.3 0.11,0.5 0,0.2 -0.04,0.37 -0.11,0.51 -0.08,0.14 -0.18,0.25 -0.32,0.32 -0.25,0.12 -0.56,0.18 -0.93,0.18 -0.37,0 -0.73,-0.11 -1.07,-0.32z"/>
 </g>
</svg>
