<?xml version="1.0" encoding="UTF-8"?>
<!DOCTYPE svg PUBLIC "-//W3C//DTD SVG 1.1//EN" "http://www.w3.org/Graphics/SVG/1.1/DTD/svg11.dtd">
<!-- Creator: CorelDRAW 2020 (64-Bit) -->
<svg xmlns="http://www.w3.org/2000/svg" xml:space="preserve" width="13.033mm" height="13.0328mm" version="1.1" style="shape-rendering:geometricPrecision; text-rendering:geometricPrecision; image-rendering:optimizeQuality; fill-rule:evenodd; clip-rule:evenodd"
viewBox="0 0 96.73 96.73"
 xmlns:xlink="http://www.w3.org/1999/xlink"
 xmlns:xodm="http://www.corel.com/coreldraw/odm/2003">
 <defs>
  <style type="text/css">
   <![CDATA[
    .str0 {stroke:#A2BD31;stroke-width:1.48;stroke-miterlimit:22.9256}
    .fil0 {fill:none}
    .fil1 {fill:#A2BD31}
    .fil2 {fill:white;fill-rule:nonzero}
   ]]>
  </style>
 </defs>
 <g id="Capa_x0020_1">
  <metadata id="CorelCorpID_0Corel-Layer"/>
  <circle class="fil0 str0" cx="48.37" cy="48.37" r="47.62"/>
  <circle class="fil1" cx="48.37" cy="48.37" r="42.1"/>
  <path class="fil2" d="M48.37 55.44l9.84 9.84 -2.06 2.06 -6.32 -6.33 0.01 13.77 -2.91 0 -0.01 -13.76 -6.31 6.31 -2.06 -2.06 9.84 -9.84 0 0 -0.01 0.01zm26.73 -24.67l0 30.13 -15.01 0 0 -2.91 12.1 0 0 -24.3 -47.64 0 0 24.3 12.1 0 0 2.91 -15.02 0 0 -30.13 53.46 0 0.01 0zm-26.73 7.78c4.03,0 7.29,3.26 7.29,7.29 0,4.03 -3.26,7.29 -7.29,7.29 -4.03,0 -7.29,-3.26 -7.29,-7.29 0,-4.03 3.26,-7.29 7.29,-7.29zm0 2.91c-2.42,0 -4.37,1.96 -4.37,4.37 0,2.42 1.96,4.38 4.37,4.38 2.42,0 4.37,-1.96 4.37,-4.38 0,-2.42 -1.96,-4.37 -4.37,-4.37zm-13.61 2.43l0 3.89 -3.89 0 0 -3.89 3.89 0zm31.11 0l0 3.89 -3.89 0 0 -3.89 3.89 0z"/>
 </g>
</svg>
